<?xml version="1.0" encoding="UTF-8" standalone="no"?>
<svg
   width="15885344"
   height="1325978.4"
   viewBox="0 0 15885344 1325978.4"
   version="1.1"
   xml:space="preserve"
   style="clip-rule:evenodd;fill-rule:evenodd;stroke-linejoin:round;stroke-miterlimit:2"
   id="svg11"
   sodipodi:docname="DreamArq._logo_LETRAS PRETAS.svg"
   inkscape:export-filename="..\Documents\Source\personal\DreamArq-Web-Portfolio\images\DreamArq._logo_LETRAS PRETAS.svg"
   inkscape:export-xdpi="100"
   inkscape:export-ydpi="100"
   xmlns:inkscape="http://www.inkscape.org/namespaces/inkscape"
   xmlns:sodipodi="http://sodipodi.sourceforge.net/DTD/sodipodi-0.dtd"
   xmlns="http://www.w3.org/2000/svg"
   xmlns:svg="http://www.w3.org/2000/svg"><defs
   id="defs11" /><sodipodi:namedview
   id="namedview11"
   pagecolor="#505050"
   bordercolor="#eeeeee"
   borderopacity="1"
   inkscape:showpageshadow="0"
   inkscape:pageopacity="0"
   inkscape:pagecheckerboard="0"
   inkscape:deskcolor="#505050"><inkscape:page
     x="0"
     y="0"
     width="15885344"
     height="1325978.4"
     id="page2"
     margin="0"
     bleed="0" /></sodipodi:namedview>
    <g
   transform="translate(-10347.739,-979.2416)"
   id="g11">
        <g
   transform="translate(-0.963255)"
   id="g10">
            <g
   transform="matrix(6.98051,0,0,6.98051,-40578.6,-2217.04)"
   id="g9">
                
                
                
                
                
                <g
   id="g13"
   inkscape:export-filename="..\Documents\Source\personal\DreamArq-Web-Portfolio\Documents\Source\personal\DreamArq-Web-Portfolio\images\g13.svg"
   inkscape:export-xdpi="100"
   inkscape:export-ydpi="100"
   transform="matrix(0.56173653,0,0,0.56173653,3197.367,200.67472)"><g
     transform="matrix(2.2397,0,0,2.2397,5447.3751,-1149.2907)"
     id="g2">
                    <g
   transform="matrix(66.6667,0,0,66.6667,1007.93,766.056)"
   id="g1">
                    </g>
                    <text
   x="818.672"
   y="766.05603"
   style="font-size:66.667px;font-family:FuturaBT-Light, 'Futura Lt BT', sans-serif"
   id="text1">Dream</text>
                </g><g
     id="g12"
     transform="translate(68.982388,-0.00589802)"><g
       transform="matrix(2.2397,0,0,2.2397,5896.63,-1146.88)"
       id="g3">
                    <path
   d="m 855.618,766.056 -14.892,-33.098 -14.925,33.098 h -8.138 l 23.079,-49.544 23.047,49.544 z"
   style="fill-rule:nonzero"
   id="path2" />
                </g><g
       transform="matrix(2.2397,0,0,2.2397,5896.63,-1146.88)"
       id="g4">
                    <path
   d="m 874.759,740.112 c 0.76,-2.04 1.763,-3.548 3.011,-4.524 1.248,-0.977 2.794,-1.465 4.639,-1.465 0.998,0 1.98,0.119 2.946,0.358 0.965,0.238 1.915,0.586 2.848,1.041 l -2.539,5.99 c -0.608,-0.434 -1.264,-0.754 -1.969,-0.96 -0.706,-0.206 -1.492,-0.31 -2.36,-0.31 -2.344,0 -4.026,0.939 -5.046,2.816 -1.02,1.877 -1.53,5.03 -1.53,9.457 v 13.541 h -7.064 v -30.924 h 7.064 z"
   style="fill-rule:nonzero"
   id="path3" />
                </g><g
       transform="matrix(2.2397,0,0,2.2397,5896.63,-1146.88)"
       id="g5">
                    <path
   d="m 914.408,750.529 c 0,-3.19 -0.744,-5.675 -2.23,-7.455 -1.487,-1.779 -3.565,-2.669 -6.234,-2.669 -2.669,0 -4.769,0.917 -6.299,2.751 -1.53,1.834 -2.295,4.378 -2.295,7.633 0,3.277 0.738,5.805 2.214,7.585 1.475,1.779 3.559,2.669 6.25,2.669 2.582,0 4.66,-0.955 6.233,-2.864 1.574,-1.91 2.361,-4.46 2.361,-7.65 z m 6.868,30.045 h -7.064 v -18.522 c -1.258,1.78 -2.729,3.104 -4.411,3.972 -1.681,0.868 -3.607,1.302 -5.778,1.302 -4.362,0 -7.796,-1.492 -10.302,-4.476 -2.507,-2.984 -3.76,-7.069 -3.76,-12.256 0,-4.926 1.28,-8.903 3.841,-11.93 2.561,-3.028 5.903,-4.541 10.026,-4.541 2.517,0 4.671,0.526 6.462,1.578 1.79,1.053 3.098,2.567 3.922,4.541 v -5.045 h 7.064 z"
   style="fill-rule:nonzero"
   id="path4" />
                </g><g
       transform="matrix(2.2397,0,0,2.2397,5896.63,-1146.88)"
       id="g6">
                    <path
   d="m 931.953,762.443 c 0,-1.194 0.412,-2.214 1.237,-3.06 0.825,-0.846 1.834,-1.269 3.027,-1.269 1.194,0 2.203,0.423 3.028,1.269 0.824,0.846 1.237,1.866 1.237,3.06 0,1.172 -0.413,2.165 -1.237,2.978 -0.825,0.814 -1.834,1.221 -3.028,1.221 -1.193,0 -2.202,-0.407 -3.027,-1.221 -0.825,-0.813 -1.237,-1.806 -1.237,-2.978 z"
   style="fill-rule:nonzero"
   id="path5" />
                </g></g><g
     transform="matrix(0.972875,0,0,0.972875,6498.2473,-81.671838)"
     id="g8">
                    <g
   transform="matrix(66.6667,0,0,66.6667,1551.26,766.056)"
   id="g7">
                    </g>
                    <text
   x="818.672"
   y="766.05603"
   style="font-size:66.667px;font-family:FuturaBT-Light, 'Futura Lt BT', sans-serif"
   id="text7">ARQUITETURA &amp; DESIGN</text>
                </g></g>
            </g>
        </g>
    </g>
</svg>
